<svg width="229" height="28" viewBox="0 0 229 28" fill="none" xmlns="http://www.w3.org/2000/svg">
<path d="M4.68799 28C3.85199 28 3.07932 27.7973 2.36999 27.392C1.68599 26.9867 1.14132 26.442 0.735991 25.758C0.330657 25.0487 0.127991 24.276 0.127991 23.44V5.20002C0.127991 4.36402 0.330657 3.60402 0.735991 2.92001C1.14132 2.21068 1.68599 1.65335 2.36999 1.24801C3.07932 0.842681 3.85199 0.640015 4.68799 0.640015H27.412V3.71801H4.68799C4.28266 3.71801 3.92799 3.87001 3.62399 4.17401C3.34532 4.45268 3.20599 4.79468 3.20599 5.20002V23.44C3.20599 23.8453 3.34532 24.2 3.62399 24.504C3.92799 24.7827 4.28266 24.922 4.68799 24.922H27.412V28H4.68799Z" fill="#0466C8"/>
<path d="M35.8581 28C35.0221 28 34.2494 27.7973 33.5401 27.392C32.8561 26.9867 32.3114 26.442 31.9061 25.758C31.5008 25.0487 31.2981 24.276 31.2981 23.44V5.20002C31.2981 4.36402 31.5008 3.60402 31.9061 2.92001C32.3114 2.21068 32.8561 1.65335 33.5401 1.24801C34.2494 0.842681 35.0221 0.640015 35.8581 0.640015H54.0981C54.9341 0.640015 55.6941 0.842681 56.3781 1.24801C57.0874 1.65335 57.6447 2.21068 58.0501 2.92001C58.4554 3.60402 58.6581 4.36402 58.6581 5.20002V23.44C58.6581 24.276 58.4554 25.0487 58.0501 25.758C57.6447 26.442 57.0874 26.9867 56.3781 27.392C55.6941 27.7973 54.9341 28 54.0981 28H35.8581ZM35.8581 24.922H54.0981C54.5034 24.922 54.8454 24.7827 55.1241 24.504C55.4281 24.2 55.5801 23.8453 55.5801 23.44V5.20002C55.5801 4.79468 55.4281 4.45268 55.1241 4.17401C54.8454 3.87001 54.5034 3.71801 54.0981 3.71801H35.8581C35.4528 3.71801 35.0981 3.87001 34.7941 4.17401C34.5154 4.45268 34.3761 4.79468 34.3761 5.20002V23.44C34.3761 23.8453 34.5154 24.2 34.7941 24.504C35.0981 24.7827 35.4528 24.922 35.8581 24.922Z" fill="#0466C8"/>
<path d="M62.9188 28V0.640015H85.7188C86.5548 0.640015 87.3148 0.842681 87.9988 1.24801C88.7082 1.65335 89.2655 2.21068 89.6708 2.92001C90.0762 3.60402 90.2788 4.36402 90.2788 5.20002V23.44C90.2788 24.276 90.0762 25.0487 89.6708 25.758C89.2655 26.442 88.7082 26.9867 87.9988 27.392C87.3148 27.7973 86.5548 28 85.7188 28H62.9188ZM67.4788 24.922H85.7188C86.1242 24.922 86.4662 24.7827 86.7448 24.504C87.0488 24.2 87.2008 23.8453 87.2008 23.44V5.20002C87.2008 4.79468 87.0488 4.45268 86.7448 4.17401C86.4662 3.87001 86.1242 3.71801 85.7188 3.71801H67.4788C67.0735 3.71801 66.7188 3.87001 66.4148 4.17401C66.1362 4.45268 65.9968 4.79468 65.9968 5.20002V23.44C65.9968 23.8453 66.1362 24.2 66.4148 24.504C66.7188 24.7827 67.0735 24.922 67.4788 24.922Z" fill="#0466C8"/>
<path d="M94.9142 28V0.640015H98.0302V28H94.9142Z" fill="#0466C8"/>
<path d="M102.737 28V0.640015H127.703V3.71801H105.815V12.762H123.409V15.878H105.815V28H102.737Z" fill="#0466C8"/>
<path d="M130.502 28V0.640015H133.618V28H130.502Z" fill="#0466C8"/>
<path d="M160.669 28V26.632L165.533 23.326V24.922H169.105V28H160.669ZM142.733 28C141.897 28 141.124 27.7973 140.415 27.392C139.731 26.9867 139.186 26.442 138.781 25.758C138.376 25.0487 138.173 24.276 138.173 23.44V5.20002C138.173 4.36402 138.376 3.60402 138.781 2.92001C139.186 2.21068 139.731 1.65335 140.415 1.24801C141.124 0.842681 141.897 0.640015 142.733 0.640015H160.973C161.809 0.640015 162.569 0.842681 163.253 1.24801C163.962 1.65335 164.52 2.21068 164.925 2.92001C165.33 3.60402 165.533 4.36402 165.533 5.20002V23.44C165.533 24.276 165.33 25.0487 164.925 25.758C164.52 26.442 163.962 26.9867 163.253 27.392C162.569 27.7973 161.809 28 160.973 28H142.733ZM142.733 24.922H160.973C161.378 24.922 161.72 24.7827 161.999 24.504C162.303 24.2 162.455 23.8453 162.455 23.44V5.20002C162.455 4.79468 162.303 4.45268 161.999 4.17401C161.72 3.87001 161.378 3.71801 160.973 3.71801H142.733C142.328 3.71801 141.973 3.87001 141.669 4.17401C141.39 4.45268 141.251 4.79468 141.251 5.20002V23.44C141.251 23.8453 141.39 24.2 141.669 24.504C141.973 24.7827 142.328 24.922 142.733 24.922Z" fill="#0466C8"/>
<path d="M176.317 28C175.481 28 174.708 27.7973 173.999 27.392C173.315 26.9867 172.77 26.442 172.365 25.758C171.96 25.0487 171.757 24.276 171.757 23.44V0.640015H174.835V23.44C174.835 23.8453 174.974 24.2 175.253 24.504C175.557 24.7827 175.912 24.922 176.317 24.922H194.557C194.962 24.922 195.304 24.7827 195.583 24.504C195.887 24.2 196.039 23.8453 196.039 23.44V0.640015H199.117V23.44C199.117 24.276 198.914 25.0487 198.509 25.758C198.104 26.442 197.546 26.9867 196.837 27.392C196.153 27.7973 195.393 28 194.557 28H176.317Z" fill="#0466C8"/>
<path d="M203.378 28V0.640015H228.344V3.71801H206.456V12.762H224.05V15.878H206.456V24.922H228.344V28H203.378Z" fill="#0466C8"/>
</svg>
